<svg xmlns="http://www.w3.org/2000/svg" viewBox="0 0 257.62 126.13"><title>Middel 1</title><g id="Laag_2" data-name="Laag 2"><g id="Laag_1-2" data-name="Laag 1"><polygon points="51.81 90.08 51.14 89.55 50.16 88.87 48.65 89.17 47.97 89.85 47.29 90.53 46.38 91.21 45.48 91.81 44.95 92.19 43.97 92.87 43.51 93.01 42.01 93.48 40.88 93.55 38.76 93.63 37.63 93.4 36.8 93.25 35.52 93.02 34.46 92.72 33.56 92.65 32.42 92.42 31.44 92.19 30.39 91.97 28.91 91.35 27.81 90.83 26.9 90.61 25.84 90.3 25.02 90.08 23.04 89.99 21.7 89.93 19.81 90.38 18.53 90.61 17.55 91.21 16.79 91.51 15.96 92.27 15.21 92.79 14.3 93.4 13.32 94.15 12.64 95.06 11.89 95.74 11.21 96.56 10.45 97.32 10 98.15 10.15 99.81 10.83 100.34 11.81 101.02 13.32 100.72 14 100.04 14.68 99.36 15.58 98.68 16.49 98.08 17.02 97.7 18 97.02 18.45 96.88 19.96 96.42 21.09 96.34 23.2 96.27 24.34 96.49 25.17 96.64 26.45 96.87 27.5 97.17 28.41 97.25 29.54 97.47 30.52 97.7 31.58 97.92 33.05 98.54 34.16 99.06 35.06 99.28 36.12 99.59 36.95 99.81 38.93 99.9 40.27 99.97 42.16 99.51 43.44 99.28 44.42 98.68 45.18 98.38 46.01 97.63 46.76 97.1 47.67 96.49 48.65 95.74 49.32 94.83 50.08 94.15 50.76 93.33 51.51 92.57 51.97 91.74 51.81 90.08" fill="#fff"/><polygon points="46.81 77.54 46.14 77.01 45.16 76.33 43.65 76.63 42.97 77.31 42.29 77.99 41.38 78.67 40.48 79.27 39.95 79.65 38.97 80.33 38.51 80.47 37.01 80.93 35.88 81.01 33.76 81.08 32.63 80.86 31.8 80.71 30.52 80.48 29.46 80.18 28.56 80.1 27.42 79.88 26.44 79.65 25.39 79.42 23.91 78.81 22.81 78.29 21.9 78.06 20.84 77.76 20.02 77.53 18.04 77.44 16.7 77.38 14.81 77.84 13.53 78.06 12.54 78.67 11.79 78.97 10.96 79.72 10.21 80.25 9.3 80.86 8.32 81.61 7.64 82.52 6.89 83.19 6.21 84.02 5.45 84.78 5 85.61 5.15 87.27 5.83 87.8 6.81 88.48 8.32 88.17 9 87.49 9.68 86.81 10.58 86.14 11.49 85.53 12.02 85.16 13 84.48 13.46 84.34 14.96 83.87 16.09 83.8 18.2 83.72 19.34 83.95 20.17 84.1 21.45 84.33 22.5 84.63 23.41 84.7 24.54 84.93 25.52 85.16 26.58 85.38 28.05 86 29.16 86.52 30.06 86.74 31.12 87.05 31.95 87.27 33.93 87.36 35.27 87.42 37.16 86.97 38.44 86.74 39.42 86.14 40.18 85.84 41.01 85.08 41.76 84.56 42.67 83.95 43.65 83.2 44.32 82.29 45.08 81.61 45.76 80.78 46.51 80.03 46.97 79.2 46.81 77.54" fill="#fff"/><polygon points="41.81 64.54 41.14 64.01 40.16 63.33 38.65 63.63 37.97 64.31 37.29 64.99 36.38 65.67 35.48 66.27 34.95 66.65 33.97 67.33 33.51 67.47 32.01 67.93 30.88 68.01 28.76 68.08 27.63 67.86 26.8 67.71 25.52 67.48 24.46 67.18 23.56 67.1 22.42 66.88 21.44 66.65 20.39 66.42 18.91 65.81 17.81 65.29 16.9 65.06 15.85 64.76 15.02 64.53 13.04 64.44 11.7 64.38 9.81 64.84 8.53 65.06 7.54 65.67 6.79 65.97 5.96 66.72 5.21 67.25 4.3 67.86 3.32 68.61 2.64 69.52 1.89 70.19 1.21 71.02 0.45 71.78 0 72.61 0.15 74.27 0.83 74.8 1.81 75.48 3.32 75.17 4 74.49 4.68 73.81 5.58 73.14 6.49 72.53 7.02 72.16 8 71.48 8.46 71.34 9.96 70.87 11.09 70.8 13.2 70.72 14.34 70.95 15.17 71.1 16.45 71.33 17.5 71.63 18.41 71.7 19.54 71.93 20.52 72.16 21.58 72.38 23.05 73 24.16 73.52 25.06 73.74 26.12 74.05 26.95 74.27 28.93 74.36 30.27 74.42 32.16 73.97 33.44 73.74 34.42 73.14 35.18 72.84 36.01 72.08 36.76 71.56 37.67 70.95 38.65 70.2 39.32 69.29 40.08 68.61 40.76 67.78 41.51 67.03 41.97 66.2 41.81 64.54" fill="#fff"/><polygon points="257.46 106.67 256.79 106.15 255.81 105.47 254.3 105.77 253.62 106.45 252.94 107.13 252.03 107.81 251.13 108.41 250.6 108.79 249.62 109.47 249.16 109.61 247.66 110.07 246.53 110.14 244.41 110.22 243.28 109.99 242.45 109.84 241.17 109.62 240.11 109.31 239.21 109.24 238.07 109.01 237.09 108.79 236.04 108.56 234.57 107.94 233.46 107.43 232.55 107.2 231.5 106.9 230.67 106.67 228.69 106.58 227.35 106.52 225.46 106.97 224.18 107.2 223.19 107.8 222.44 108.1 221.61 108.86 220.86 109.39 219.95 109.99 218.97 110.75 218.29 111.65 217.54 112.33 216.86 113.16 216.1 113.91 215.65 114.75 215.8 116.4 216.48 116.93 217.46 117.61 218.97 117.31 219.65 116.63 220.33 115.95 221.23 115.27 222.14 114.67 222.67 114.29 223.65 113.61 224.1 113.47 225.61 113.01 226.74 112.93 228.85 112.86 229.99 113.08 230.82 113.23 232.1 113.46 233.16 113.76 234.06 113.84 235.19 114.06 236.17 114.29 237.23 114.52 238.7 115.14 239.81 115.65 240.72 115.88 241.77 116.18 242.6 116.41 244.58 116.5 245.92 116.56 247.81 116.11 249.09 115.88 250.07 115.28 250.83 114.97 251.66 114.22 252.41 113.69 253.32 113.09 254.3 112.33 254.97 111.43 255.73 110.75 256.41 109.92 257.16 109.16 257.62 108.33 257.46 106.67" fill="#fff"/><polygon points="252.47 93.67 251.79 93.15 250.81 92.47 249.3 92.77 248.62 93.45 247.94 94.13 247.03 94.81 246.13 95.41 245.6 95.79 244.62 96.47 244.16 96.61 242.66 97.07 241.53 97.14 239.41 97.22 238.28 96.99 237.45 96.84 236.17 96.62 235.11 96.31 234.21 96.24 233.07 96.01 232.09 95.79 231.04 95.56 229.57 94.94 228.46 94.43 227.55 94.2 226.5 93.9 225.67 93.67 223.69 93.58 222.35 93.52 220.46 93.97 219.18 94.2 218.19 94.8 217.44 95.1 216.61 95.86 215.86 96.39 214.95 96.99 213.97 97.75 213.29 98.65 212.54 99.33 211.86 100.16 211.1 100.91 210.65 101.75 210.8 103.4 211.48 103.93 212.46 104.61 213.97 104.31 214.65 103.63 215.33 102.95 216.23 102.27 217.14 101.67 217.67 101.29 218.65 100.61 219.1 100.47 220.61 100.01 221.74 99.93 223.85 99.86 224.99 100.08 225.82 100.23 227.1 100.46 228.16 100.76 229.06 100.84 230.19 101.06 231.17 101.29 232.23 101.52 233.7 102.14 234.81 102.65 235.72 102.88 236.77 103.18 237.6 103.41 239.58 103.5 240.92 103.56 242.81 103.11 244.09 102.88 245.07 102.28 245.83 101.97 246.66 101.22 247.41 100.69 248.32 100.09 249.3 99.33 249.97 98.43 250.73 97.75 251.41 96.92 252.16 96.16 252.62 95.33 252.47 93.67" fill="#fff"/><path d="M100.47,19.49l.15,1.28-.53.68-.68.83-.61.83-.6.83-1,.68-.53.6-1,.76-.61.53-1.06.6-.68.38L92,28l-.84.22-1,.08-2.35.15-1,.68-.22,1.06-.17,1.05v1.06l-.44,1.06-.31,1.06-.3.83-.22,1.06-.39,1-.6,1.06-.37.76-.61,1-.75.76-.31,1-.9.83-.61.83-.68.61-.75.67-.91.76-.82.68-.69.53-1.14.45-.82.46L73.57,48l-1,.46-.69.22-1,.08L69.5,49l-2-.15-.82-.16-1.06-.15-1.14-.15-.83-.53-1.2-.45L61.56,47l-.68-.83-.91-.6-.75-.84L58.54,44,58.16,43l-.67-.76-.24-1.06-.37-1-.3-1.14-.15-1-.08-.91L56.28,36l-.23-2.27.15-1-.08-.91.16-1.05.52-1.06V28.7l.45-1.13.16-.83.68-1.14.3-.83.38-1.13.45-.91L59.9,22l.6-.91.76-.9.61-.91.45-.61.9-.9.61-.68.9-.68,1-.53.68-.53,1.13-.45,1-.61,1.75-.6.9-.3,1.29-.23,1-.08,2,.08,2.19.23,1.21.3.83.38.83.52,1.14.53.53.61.75.68.68.9.76.91L85,19l.22.91.69,1.13.22,1,1.28,1.66,1.22.31,2.19-.08,1.13-.23L93,23.34,93.9,23l.6-.68,1.06-.68.68-.53.75-.83,1-.83,1.66-.3Zm-29.24,23,1.21-.38.83-.37.83-.61,1-.68.6-.67.9-1,.46-.75.53-.84.83-1,.45-.91.38-1.13.15-.91.38-1.13.45-.91L80.08,30l.07-1.06.3-2-.3-1.14-.23-1.05-.3-.83-.15-1-.69-.83-.67-.9-.75-.68-.53-.61-1.22-.3-.75-.3H72.74l-.91.23-1.35.22-.84.46-.75.6-1,.6-.75.76-.84.83-.45.75-.61.91-.83,1.06L64,26.74l-.15.83-.38,1.21-.38,1-.22.91L62.54,32l.15,1.13-.07,2v1.14l.07,1,.53.91.38,1.06.53.83.38.83.75.61.91.67,1,.46.82.23h2.27Z" fill="#fff"/><path d="M103.89,48.72l-2-.38-1.06-.3-.91-.61L98.67,47l-.75-.53-1-.68-.68-.83-.46-.76-.75-.75-.53-1-.46-.84-.75-1L93,39.42V38.37l-.53-1.14-.15-.9.07-1.13-.15-2L92.4,32V30.89l.53-.9L93,28.78l.15-1,.38-.9.3-1,.38-1.13.53-1L95,23l.68-.91.61-1,.53-.9.45-.83,1-.69.6-.75.68-.83,1.06-.76.53-.53,1.21-.45.68-.6,1.13-.38.91-.46.83-.37,1.13-.15,1.22-.15,1-.16h2l1,.23,1.21.23.76.3.91.23,1.05.6.83.6.53.83.61.84.67.75.24,1.06.45.83-.08,1.06.16,2-.31,1.21-.15.9-.38.91-.22.91-.68.83-.76.83-.6,1-.76.6-.83.76-.6.6-.84.46-1.21.53-.67.6-1.06.3-1,.38-1.21.45-1,.23-1,.3-1.13.08-1.06.37h-.9l-1,.23L101,35.2l-.9.07-.83,1.14.14.9.31,1.06.6,1.05.53.77.68.67.68.68.83.68,1.06.3,2,.31,2.12.15,1.13-.23.83-.08,1-.15,1.14-.38,1-.29.76-.46,1-.38.9-.37,1.06-.53.76-.61,1-.61.91-.82.76-.76.53-.68,1-.68.45-.83.76-.91.83-.83.6-.9.68-1.14.45-.9.61-.91,1.29-.3.9.6.61,1.59-.69,1.06-.45.9-.37.83-.69.91-.37.83L125.64,37l-.46.75-.6.76-.53.9-.9.77-.76.9-.53.76-.6.67-1.06.68-.75.84-.61.67-1,.61-.69.53-1,.52-1,.39-1,.6-.91.38-1.2.38-.76.15-1.29.29-.75.24-2,.15-2.34-.08Zm-2.8-17.53,1.06-.22,1-.08,1.21-.23,2.19-.67,1.14-.38.67-.53,1.21-.53,1-.45.68-.76.76-.83.61-.76.6-1.05.22-.91-.15-2.11-.3-.91-.76-.83-1-.6-1-.23-2,.07-.83.08-1.06.45-1.81,1.14-.84.67-1,.68-.6.91-.68.91-.46,1-.67,1L100,27l-.53,1.14-.07,1.06-.29,1,.89,1.13Z" fill="#fff"/><path d="M115.46,66.4l.23-1.14.3-1.05.37-.83.53-1.22.16-.83.37-1,.16-1.06.44-1,.39-1.13.14-1.06.24-1,.37-.91.3-1.06.31-1.13.22-1.06.46-.83V48.87L121,48l.07-1.14.6-1,.15-1.06.38-.91.31-1.05.07-1,.46-1.13.22-1,.3-1.06.23-1,.46-1,.3-1.06.22-1.13.38-.91.3-1.13.07-1,.31-1,.38-1.05.37-.91.46-1.06.31-1.13.07-.83.45-1.14.3-1.13.31-1,.14-1.06.46-1,.37-1,.31-.91V17.14l.3-.83.53-1.13,1.28-1,1-.08h1.28l.91.08.83,1-.23,1.13-.15,1.13-.38,1.14v1.28l.76-1,.83-.6.38-.84.75-.68,1-.75.76-.76,1-.52.83-.46.83-.53,1.21-.15,1-.3,1.06-.3,2,.07,1.14.16.91.22.67.61,1.06.37.91.68.68.76.67.6.61,1.06.6.83.23.83.53,1.14.22,1,.31,1,.3,1.06.08,1-.08,1.13.16,2.12-.16,1.06v1.05l-.08.91-.29,1.21-.31,1.05-.3,1-.08.9-.22,1-.53,1.13-.3.9-.76.84-.22,1-.84.9-.6.91-.68.91-.53.75-.6.68-.83.91-.76.68-.91.68-.67.53-.91.45-1.06.45-1,.46-1,.3-.91.37-1,.24-1.21.07h-2.19l-.83-.07-1.06-.31-1.06-.37-1-.46-1.14-.53-.82-.68-.61-.68-.83-.9-.6-.91-.31-1.13-.45-.91-.45,1-.08.9-.22,1.13-.53.91-.22,1.21-.17.9-.22,1-.53,1.2-.3.91-.3,1.06-.15.9-.3,1.06L125,55.14l-.23,1.14-.15.82-.45,1.21-.31,1-.14,1.06-.38,1-.15,1.06-.38.91-.15,1.06-.53,1-.46,2-1.43,1.06-.9-.07h-1.06l-1.37.15-1.06-.08-.6-1Zm25.91-24,1-.31,1-.6.83-.6.91-.68.75-.84.6-.9.84-.9.3-.91.53-1,.45-1.06.38-.91.46-1V31.65l.53-1,.07-1.2-.15-1.06.22-2.19-.37-1.06v-1L149.38,23l-.23-.76-.6-.91-.68-1-1-.6-1-.38-.82-.23-2.2-.15-1.13.31-.91.37-.91.53-.83.45-.6.76-.83.75-1,.76-.3,1-.91.76-.31,1-.67.91-.38.9-.53,1-.08,1.13-.45,1.05-.08.91-.22,1.13-.07.91.15,2.34-.08.91.22,1.06.39,1.13.83.9.37.91,1,.75.83.53,1.13.46.83.15,2.19-.08Z" fill="#fff"/><path d="M79.73,105.48l-.78-.21-1.07-.43-.72-.5-.79-.71-.42-.79-.5-.93L74.8,101l-.14-.85-.07-1,.07-1.8v-1l-.07-.71.07-1,.43-.86.22-1,.07-.79.07-1.14.36-.79.28-1.14.36-.85L76.81,87l.21-.86.28-1,.29-1,.43-1V82l.5-.93L78.73,80l.29-.93.36-1L79.73,77,80,76l.5-.93.35-1.15L82,72.84h2.14L85.3,73l1.07-.07.58.93-.29,1.07-.07.86-.57,1-.29.78-.21,1.08-.29,1-.43.85-.06,1-.29.86-.5.86-.36.93-.14,1.14-.43.86-.22,1-.21.93-.36.85-.21.93-.22,1-.28,1.07-.07.79-.36,1,.07.93-.36,1.06.29,2,.21.93.72.71.64.57,2.08.22,1.85-.79.58-.51.85-.71.71-.64.79-.79.85-.64.57-.85.65-.94.35-.71.72-.85.58-.86L94,91l.36-.78.71-1,.29-.79.56-1,1.51-.14.7.57.51,1.43-.65.85-.28.86-.5.93-.5.79-.5.71-.72.92-.35.73-.78.92-.3.71-.71.87-.49.92L91.67,100l-.87.72-.5.64-.64.71-1.5,1.36-.79.57-.92.43-.79.57-.86.29-1.21.28-.71.22-2.08.07Zm3.86-40.07.29-.85v-.93l.64-1.08.28-.78.29-.93.07-1,1.36-.93,1.28-.07.8-.14,1.06-.14H91l.71.78-.36,1.07-.57.93-.14,1-.36,1-.21.93-.43,1-.42,1.14-1.08.93h-1L85,67.2H83.73l-.64-.93Z" fill="#fff"/><path d="M116.38,105.41l-.71-.21-1.14-.58-.65-.71-.71-.86-.36-.92-.21-1-.36-.87.21-2.06-.07-1,.22-.93.21-1,.22-.93.35-.92.5-1.14.22-.93.21-.78.36-1,.64-.93.43-.92.29-.86.21-1,.36-.86.28-1,.15-.86.35-1.07.07-1.92-.64-1.08-.5-.71-1.21-.57h-1.58l-1,.21-.72.36-1,.29-.78.56-.5.58-.65.85-.78.65-.57.71-.57.93-.72.64-.43,1-.71.79-.36,1-.71.86-.43.92-.36.86-.64,1.07-.29.79-.43,1.07-.64.86-.21,1-.64.93-.15,1.13-.57,1-.28,1-.5.87-.23,1-.42,1.07-.5.93-.35,1.07-.29.86-1.36,1.21-.85-.22-1.15.15h-.85l-.94.07-1-1.07.28-.86.5-1.14.08-.93.49-.86.08-1.07.43-.85.42-1,.08-.93.5-1.07.06-.87.51-1,.43-1.92L95,90.2l.5-.79.21-1.14.29-.86.21-1.07.43-.79V84.41l.29-.93.57-.86.28-1,.08-1.06.5-.79.27-1.07.08-1,.29-.86.21-1.07.57-.86V74l1.36-1.14,1.21.14,1-.07h.86l.86.93-.29,1.07-.07.93-.28.93v.86l-.36,1.07-.22.78-.07,1-.43,1,.08.79.57-.72.21-.93.86-.71.5-.72.64-.78.43-.78.64-.79.64-.64.65-.86.78-.64,1.08-.43.56-.65,1-.42.64-.43,1.21-.5.93-.21.72-.22,2,.14.92.08,1,.28.92.57.93.43.71.72.65.85.28.72.51.92.06,1,.3,1,.14,2.07-.14,1-.36.86-.07,1.07-.51.93-.14,1.07-.5.93-.28,1-.44.86-.35.86-.42,1.07-.15.78-.36,1-.5,1.07-.5.87-.22.92L118.6,96v1l-.08,2.08,1,.85,1.86.14.94-.35.77-.36.79-.57.71-.65.5-.56.93-.93.44-.58.78-.85.57-.94.58-.78.77-.85.37-.86.5-.72.86-.85.27-.93.73-.93.57-.93,1.21-.14,1.14.64.29,1.36-.5.85-.51.86-.71,1-.36.86-.71.78-.5.79-.42.92-.65.87-.58.86-.57.77-.57.87-.63.71-.65,1L127,101l-.64.86-.58.79-1,.64-.64.5-.79.64-1,.57-1.72.57-1.14.15-2,.07Z" fill="#fff"/><path d="M173.62,90.2l-.44.71-.5.86-.57.86-.5.92-.57.78-.5.87-.64.85-.43.79-.64.64-.72.79-.71.79-.36.85-.79.79-.49.64-.94.86-.63.5-.72.71-.71.71-.93.72-.71.43-.65.64-1.07.5-.65.64-.93.43-.92.36-.92.5-1,.35-1.14,1.36-.36.93-.29.93-.5.86-.49.93-.29.85-.29.93-.49.86-.65,1-.36.85-.35.93-.58.79-.71.71-.42.93-.94.79-.42.71-.93.57-.86.57-.57.5-1.14.57-.65.29-1,.14-.92.29-1.08.14-3.07-.21-.92-.22-.93-.5-.93-.35-.93-.79-.57-.71-.79-.72-.36-1.07-.21-1-.43-1,.22-2-.07-.93.42-.85.22-1,.35-.72.86-.86.5-.57.79-.78.79-.57.71-.58.71-.5,1.07-.35.72-.36.93-.43,1.07-.21.93-.36.85-.28,1.07-.29.93-.21,1-.36.86-.07,1.21-.36.8-.21,1.2-.08,1.07-.71.44-1.5.21-.71.07-1,.43-.93.07-.86.43-1-.93.79-.72.64-.78.5-1.07.49-.78.51-1.94.64-.85.22-.93.07-2.22.07-1-.21-.71-.22-.93-.21-1.07-.43-.93-.64-.57-.58-.86-.71-1.28-1.5-.36-1.07-.43-.86-.35-1-.43-.85-.14-1-.15-1.14.07-.93-.14-2V89.41l.14-.93.36-1v-1l.43-.93.28-1,.29-1.07.43-.93.35-.78.29-1,.72-.79.42-.93.72-.85.5-.72.57-.71,1.57-1.5.71-.5,1.65-1.22,1-.35,1.07-.36.93-.36.71-.36H146l1.14-.14,2.07-.07.73.15,1,.14.85.5L153,73l.65.57.93.65.42.86.71.78.36.71.57,1.08.5.92.22,1,.14.79.51-.86.28-.93.43-1,.56-.78.37-.93.43-.93.63-.93L162,73l1.72-.14,1.21.07.43,1-.21.86-.36.93-.36.93-.07,1.07-.29,1-.65.78v1.08l-.49.85-.07,1.07-.57.79-.14.93-.43,1-.44.93-.21.92-.28,1.07-.08.86-.56,1.07-.15.86-.42.93-.08,1-.5,1-.71,1.72L158,96.63l-.28.78-.29,1.07-.28.86-.14.86-.15,1.07-.5.71-.07.93-.71,1.43.86.07,1.7-1,1.58-1.14,1-.72.57-.64.79-.71.64-.57.57-.72.64-.71.65-.87.85-.77.36-.65.71-.85.58-.8.64-.78.35-.85.65-1,.35-.65.65-.93.36-.93.5-.85.57-.72,1.35-.28,1.08.5.35,1.57Zm-32.94,30.35.65-.57,1-.5.71-.64.58-.65.42-.64.86-.85.36-.86.57-.93.57-.71.5-1.08.14-.85.5-1-.71-.72-.64.29-1,.36-1.08.14-1.85.5-.93.36-1,.28-.93.43-.57.5-1,.43-.93.64-.71.64-.5.72-.14,1v1.78l.49,1,.65.57,1,.58,1.78-.15Zm5.51-22.28.92-.36,2-.93.64-.65.86-.64.5-.78.64-.78.57-.86.35-1,.58-1,.36-.93.06-.93.22-1.07.28-1-.07-.86.14-2.14-.07-1-.2-.93-.36-1-.57-.85-.64-.93-.65-.79-1-.43-.71-.5-1-.21-1.93.07L145.9,78l-.79.29-.78.5-1,.42-.93.65-.57.78-.79.72-1.14,1.72-.14.85-.57.93-.22,1-.28,1.07-.43.93-.21,1.07.14.93V92l-.07.86.35,1,.36,1,.36,1,.71.73.57.64,1,.63,1,.37.72.21,2.21.15Z" fill="#fff"/><path d="M181.5,105.62l-1.87-.35-1-.29-.87-.57-1.21-.43-.71-.5-.93-.64-.64-.79-.43-.71-.72-.71-.5-1-.42-.8-.72-.92-.28-1.07v-1l-.5-1.06-.14-.86.06-1.07-.14-1.93.14-1.07V88.77l.5-.86.08-1.14.14-.93.36-.86.29-.93.36-1.07.49-.93.21-.78.64-.86.58-.93.5-.85.42-.79.93-.64.57-.72.65-.78,1-.72.5-.5,1.14-.42.64-.58,1.07-.35.87-.43.77-.36,1.08-.14,1.14-.14.93-.15h1.86l1,.21,1.14.22.72.28.85.22,1,.57.79.57.5.79.57.79.64.71.22,1,.42.78-.06,1,.14,1.93L196,82.12l-.14.86-.36.86-.21.86-.65.78-.71.79-.57.93-.72.57-.78.71-.57.57-.79.43-1.14.5-.64.58-1,.28-.92.36-1.14.43-.93.21-.94.28-1.07.08-1,.35h-.85l-.93.22-1.15.07-.85.07L177.13,94l.14.85.3,1,.57,1,.5.72.63.64.65.63.78.65,1,.29,1.94.28,2,.15,1.07-.22.78-.07.92-.14,1.08-.36.93-.28.72-.43.92-.36.86-.36,1-.5.71-.57.93-.58.86-.77.71-.72.5-.65.93-.64.43-.78.72-.86.78-.79.57-.85.65-1.07.42-.86.57-.86,1.22-.28.86.57.56,1.5-.64,1-.43.85-.35.79-.64.86-.36.78-.86,1-.43.71-.57.72-.5.86-.85.72-.72.85-.5.72-.57.64-1,.64-.72.79-.57.64-1,.57-.64.5-.93.5-.93.36-.92.57-.86.36-1.14.35-.72.15-1.21.28-.71.22-1.94.14-2.21-.07Zm-2.65-16.57,1-.21.93-.07,1.14-.22,2.07-.64,1.08-.36.64-.5,1.14-.5.93-.42.63-.72.72-.79.58-.71.57-1,.21-.86-.14-2-.28-.86-.72-.78-1-.57-.93-.21-1.93.07-.78.07-1,.43L182,79.27l-.79.64-.94.65-.56.85-.65.86-.42.93-.65.93-.22.92-.5,1.08-.07,1-.28.93.85,1.06Z" fill="#fff"/><path d="M219.72,98.48l-.5.93-.78.64-.58.72-.57.78-.86.65-.78.71-.65.72-.92.49-.57.58-1,.42-1.07.22-.78.28-.93.22-2-.14-.93-.08-1-.35-1.08-.5-.93-.65-.57-.49-.64-.93-.43-.86-.28-1-.36-1-.15-.92.07-1.85-.28-.86.14-.94.14-.93.15-.92.29-.71-.08-.93.29-1,.28-.93.29-.93v-1l.28-.92.36-1,.14-1,.23-1.07.49-.93.14-1,.43-1,.21-.85.07-1.08.5-.92.3-1.15.2-.93.29-1,.29-.93.21-1.07.29-.94.28-1,.36-1,.35-1.15.23-.93.49-.93.36-1.07.14-1.07.36-1,.43-1.86.57-1.07.22-1.07.42-1,.36-.92.07-1,.43-1.08.21-.93.22-1,1.5-1,.86-.14,1.13.07,1.08-.07.86.14.78.86-.5,1.08-.14.85-.44,1.07-.27.79-.15,1.14-.21.86-.57,1.93-.29.85-.5,1-.21,1-.14.93-.22,1-.36.86-.21,1-.57,1-.07,1.07-.37.79L213,73.06l-.13,1-.29.92L212,76l.08,1-.43.93-.22.86L211,79.84l-.14.86-.3,1-.35,1.07-.07,1-.5.85-.22,1.07-.36,1,.08.86-.43.93-.15,1.07-.21.93-.21.93-.36,1.07-.07,1-.22.85v1.15l.15,1.85.35,1.08.65.93.64.57,2,.07,1.07-.28.71-.22.94-.57.57-.57,1-.58.44-.63,1.28-1.44,1.57-.07.93.65.36,1.43Z" fill="#fff"/><path d="M30.19,59l-.86-.35-.92-.07-1-.36L26.26,58l-.92-.56-1-.29-.65-.43-1.07-.5-.79-.5-.78-.64-.78-.5-.72-.79-.93-.57-.28-1.57.57-.93.64-.64.36-.86.57-.93.35-.71h1.36l.64.71.65.72,1,.5.78.64.93.36.72.57,1,.36.85.42.93.36.93.07,1,.15,1.14.14,2.07.14.86-.21L37,52.41l.72-.29.92-.36,1-.43.93-.71L41.2,50l.84-.57.65-.86.35-.79.58-.93.43-1.07.14-1,.15-1.93-.22-1.07L44,40.91,43.27,40,43,39l-.77-.79-.8-.71-.7-.72-.57-.71-.87-.58L37.7,34.33l-1.5-1.14-.87-.5L34.4,32l-.78-.5L33,30.76l-.72-.64-.71-.78-.79-.93-.35-.72-.79-1-.07-.92L29.12,25l-.36-1V22.84l.07-.94-.14-2.07.14-1,.5-.92.15-1,.14-.86.43-.93.5-1,.64-.72.36-1,.64-.57,1-.79.71-.57.79-.71.57-.58.94-.36,1.07-.49.92-.29.86-.29.79-.42h1.28l.79-.15,1.21-.14L44.84,7l1.06.07,1.15.29.71.21,1,.29.86.42,1.14.29,1.36,1.14.71.72.79.78.57.79.64.78.43,1,.22.93.21.86.15,1,.21,1v2.07l-.36,1.28-.92.94-1.29.06-.93-.06-.86.14-1.21-.08L50,21v-.86l.07-1.93-.29-1.14-.57-.86-.28-1L48,14.55l-.65-.64-1-.51-.93-.35-1.07-.21-1.94.07-1.07.21-.78.21-1,.43-.85.43-.87.43-.63.79-.87.78-.5.72-.28,1-.5.92.07.86L35,21.84l.07.85.35,1,.29.93.58.71.56.86.87.65.49.78,1,.57.7.57.65.64.92.5.87.72,1,.5.71.5.93.71.56.5.94.65.78.78.58.79.71.78.57.79.5.78.36,1,.36.79.14,1,.21,1.07.22,1-.07,2-.29,1.14-.07,1-.14.85-.43,1.15-.15.78-.35.93-.65.93-.42,1-.79.71-.64.72-.64.92-.86.5-.64.72-.65.64-.93.57-.85.29-1.07.5-1.07.43-.94.28-.79.22-1.07.28-.92.07-1.15.22-1.14.07-1.86-.07Z" fill="#fff"/><path d="M48.73,105.26l-.86-.35-.92-.07-1-.36-1.15-.21-.92-.57-1-.29-.65-.43-1.07-.5-.79-.5-.78-.64-.78-.5-.72-.79-.93-.57-.28-1.57.57-.93.64-.64.36-.86.57-.93.35-.71h1.36l.64.71.65.72,1,.5.78.64.93.36.72.57,1,.36.85.42.93.36.93.07,1,.15,1.13.14,2.07.14.86-.21,1.29-.07.72-.29.92-.35,1-.44.93-.71.65-.64.85-.57.64-.86.36-.79.57-.93.43-1.07.14-1,.15-1.92-.22-1.07-.14-.86-.71-.93-.22-1-.78-.79L60,83.77l-.71-.72-.57-.71-.87-.57-1.63-1.15-1.5-1.14-.87-.5L53,78.27l-.79-.5-.64-.72-.72-.64-.71-.78-.79-.93L49,74l-.79-1-.07-.92-.43-.79-.36-1V69.13l.07-.93-.14-2.08.14-1,.5-.92.15-1,.14-.86.43-.93.51-1,.63-.71.36-1,.64-.57,1-.79.71-.57.79-.71.57-.58.94-.36,1.07-.49.92-.29.86-.29.79-.42h1.28l.79-.15,1.21-.14,1.72-.07,1.07.07,1.14.29.71.21,1,.29.86.43,1.14.28L70.66,56l.71.72.79.78.57.79.64.78.43,1L74,61l.21.85.15,1,.21,1v2.07l-.36,1.29-.92.93L72,68.2l-.93-.07-.86.14L69,68.2l-.5-.93v-.86l.07-1.93-.29-1.14-.57-.86-.28-1-.93-.64-.65-.64-1-.5L64,59.34l-1.07-.21L61,59.2l-1.08.21-.78.21-1,.43-.85.43-.87.43-.63.79-.87.78-.5.72-.28,1-.5.92.08.86-.15,2.15.07.85.35,1,.29.93.58.71.56.86.87.65.49.78,1,.57.71.57.64.64.93.51.86.71,1,.5.71.5.93.71.57.5.93.65.78.78.58.79.71.78.57.79.5.79.36,1,.36.78.14,1,.21,1.07.22,1-.07,2-.29,1.14-.07,1-.14.85-.43,1.15-.15.78-.35.93-.65.93-.42,1-.79.71-.64.72-.64.93-.86.49-.64.72-.65.64-.93.57-.85.29-1.07.5-1.07.43-.94.28-.79.22-1.07.28-.92.08-1.15.21-1.14.07-1.86-.07Z" fill="#fff"/><polygon points="220.9 74.01 220.78 74.4 220.79 74.45 220.9 74.23 220.9 74.01" fill="#fff"/><polygon points="228.52 37.57 229.09 36.57 229.16 35.5 229.52 34.71 230.09 32.78 230.11 32.64 229.73 33.54 229.51 34.61 228.94 35.68 228.51 37.54 228.16 38.54 228.07 39.12 228.3 38.57 228.52 37.57" fill="#fff"/><polygon points="228.07 39.12 227.95 39.43 227.73 40.43 227.72 40.47 228.01 39.61 228.07 39.12" fill="#fff"/><path d="M250.68,63.21l-.1-.9-1.13-.21-.88,0-1-.24-1,.27-1.1-.37-1-.1h-.31l-.7,0-2-.19-.85-.19-1.06.13-1.09-.36h-1l-.91-.18-1,0-.94,0h-1l-1.08-.3-.89-.11-2-.18-.61,0-.27,0-.82.06v-.06l.36-1,.22-1.07.5-.86.07-1,.35-1.07.3-1,.14-.86.42-1.07.12-.47.11-.06.13-.64.29-.61v0l0-.44,0-.19.42-1.08v-.15l.06-.09.29-.93.11-.85.39-.9.21-1.07.58-1.07.43-1.86.35-1,.08-.59L234,40l.22-1v0l.07-.2.5-.93.22-.93.35-1.15.36-1,.28-1,.29-.94.22-1.07.28-.93.29-1,.21-.93.29-1.15.5-.92.07-1.08.21-.85.43-1,.15-1,.49-.93.22-1.07.14-1,.36-1,.28-.92v-1l.29-.93.29-.93.28-1-.07-.93.29-.71.14-.93.14-.92.14-.94-.28-.86.07-1.85L241.58,6l-.35-1-.29-1-.43-.86-.64-.93-.57-.49-.93-.65L237.3.57l-1-.35-.93-.08-2-.14-.93.22-.78.28-1.07.22-1,.42-.57.58-.93.49-.64.72-.79.71-.86.65-.57.78-.57.72-.79.64-.49.93-.43.78.35,1.43.93.65,1.57-.07,1.29-1.44.43-.63,1-.58.57-.57.93-.57.71-.22,1.07-.28,2,.07.64.57.65.93.36,1.07.14,1.86V11.5l-.22.86-.07,1-.36,1.07-.21.93-.21.93-.15,1.07-.42.93.07.86-.36,1-.21,1.07-.51.85-.06,1-.36,1.07-.29,1-.14.86-.43,1.07-.12.47-.1.07-.14.63-.28.62,0,.48,0,.2-.43,1.07v.15l0,.1-.29.92-.12.86,0,.14-.57,1.93-.36.79-.07,1.07-.57,1-.22,1-.22.55-.07.49-.29.86-.07.21-.49.93-.23.93-.35,1.14-.36,1-.28,1-.29.93-.21,1.07-.29.93-.28,1-.21.93-.3,1.14-.5.93-.07,1.07-.2.86-.44,1-.14,1-.49.92-.23,1.08-.13,1-.36,1-.29.93v.42l-.14.24-.15.83-.46,1.13v1.06l-.11.22.08.88-.29.72-.15.92-.14.93-.1.69,0,.51.19.59,0,1,.07.93.08.9h0l.14,1,.3,1.14.38,1,.23,1.06.68.76.37,1.06.69.67.75.84.91.6.67.83.84.38,1.21.45.83.53,1.14.15,1.05.15.83.16,2,.14,1.29-.22L235.8,84l.69-.22,1-.46,1.13-.37.83-.46,1.13-.45.69-.53.83-.68.91-.76.75-.67.68-.61.61-.83.9-.83.3-1,.75-.76.61-1,.38-.76.6-1.06.38-1,.23-1.06.3-.84.3-1,.26-.62.19-.44V66.58l.16-1.06.22-1Zm-7.32,5.41-.16.91-.37,1.13-.46.91-.83,1.05-.53.84-.45.75-.91,1-.6.68-1,.68-.83.61-.83.37-1.22.38-1,.3H232l-.83-.22-1-.46-.91-.68-.75-.6-.38-.83-.53-.83-.38-1.06-.53-.91-.08-1.05V70.43l.08-2-.15-1.13.31-1.21.06-.28H227l1.13.21,1-.13,1,.17,1.07.22h1.09l1.16.36,1.91,0,1,.15,1.08-.06,1.12.14,1,.3.95,0,1.19.12,1.05.16.93.07Z" fill="#fff"/><polygon points="248.1 30.52 247.72 30.84 247.21 31.3 247.19 32.2 247.48 32.66 247.78 33.13 248.05 33.73 248.27 34.32 248.41 34.66 248.67 35.3 248.69 35.58 248.76 36.49 248.66 37.13 248.44 38.34 248.16 38.95 247.97 39.4 247.68 40.09 247.38 40.65 247.22 41.15 246.95 41.76 246.69 42.28 246.43 42.85 245.9 43.6 245.46 44.16 245.22 44.64 244.91 45.2 244.68 45.63 244.38 46.74 244.17 47.49 244.19 48.61 244.15 49.36 244.37 49.99 244.44 50.45 244.76 51.02 244.96 51.51 245.19 52.1 245.49 52.75 245.91 53.25 246.2 53.76 246.58 54.25 246.91 54.77 247.32 55.13 248.28 55.26 248.66 54.94 249.17 54.48 249.19 53.59 248.89 53.12 248.6 52.65 248.33 52.05 248.1 51.46 247.96 51.12 247.7 50.48 247.68 50.2 247.61 49.29 247.71 48.65 247.94 47.45 248.21 46.84 248.4 46.39 248.69 45.69 249 45.13 249.16 44.63 249.43 44.02 249.68 43.5 249.94 42.93 250.48 42.18 250.91 41.62 251.16 41.14 251.46 40.58 251.69 40.15 252 39.04 252.2 38.29 252.19 37.17 252.22 36.42 252.01 35.79 251.93 35.33 251.61 34.76 251.41 34.27 251.19 33.68 250.89 33.03 250.46 32.53 250.18 32.02 249.79 31.53 249.47 31.01 249.06 30.65 248.1 30.52" fill="#fff"/><polygon points="239.95 33.08 239.57 33.4 239.06 33.87 239.04 34.76 239.33 35.23 239.63 35.7 239.9 36.29 240.12 36.88 240.27 37.23 240.53 37.87 240.55 38.14 240.62 39.05 240.51 39.7 240.29 40.9 240.01 41.51 239.82 41.96 239.53 42.65 239.23 43.21 239.07 43.71 238.8 44.32 238.55 44.84 238.28 45.41 237.75 46.16 237.31 46.72 237.07 47.2 236.77 47.76 236.53 48.2 236.23 49.3 236.03 50.05 236.04 51.17 236 51.92 236.22 52.55 236.29 53.02 236.61 53.58 236.81 54.07 237.04 54.66 237.34 55.31 237.76 55.81 238.05 56.32 238.43 56.81 238.76 57.33 239.17 57.69 240.13 57.82 240.51 57.5 241.02 57.04 241.04 56.15 240.75 55.68 240.45 55.21 240.18 54.61 239.96 54.02 239.81 53.68 239.55 53.04 239.53 52.76 239.46 51.85 239.56 51.21 239.79 50.01 240.06 49.4 240.25 48.95 240.55 48.25 240.85 47.7 241.01 47.2 241.28 46.59 241.53 46.06 241.8 45.49 242.33 44.74 242.76 44.19 243.01 43.7 243.31 43.15 243.55 42.71 243.85 41.6 244.06 40.85 244.04 39.73 244.07 38.98 243.86 38.35 243.78 37.89 243.47 37.32 243.26 36.83 243.04 36.24 242.74 35.59 242.31 35.09 242.03 34.58 241.65 34.09 241.32 33.57 240.91 33.21 239.95 33.08" fill="#fff"/><path d="M169.22,64.86l-.48-.15-.37-.22-.45-.3-.48-.37-.4-.25-.37-.41-.3-.44-.33-.37-.15-.56-.18-.44-.26-.48-.15-.44-.07-.52-.11-.52,0-.59-.07-1,.11-.52,0-.51,0-.56.22-.48,0-.51.22-.52.22-.48v-.44l.26-.48.29-.56.15-.48.18-.4.45-.48.18-.41.41-.37.26-.37.4-.44.37-.33.3-.3.55-.3.37-.29.52-.26L171,48l.45-.18.47-.15.6,0,.47-.11h.93l.48.08.56.11.47.22.52.22.48.18.33.34.34.37.36.4.26.48.19.45.22.55.07.48.19-.48.29-.55,0-.48.22-.41.15-.56.15-.47.07-.45.15-.48.22-.55.07-.41.26-.48,0-.51.15-.52.14-.48.12-.52.29-.44,0-.52.14-.44.12-.56.25-.44,0-.51.26-.49.07-.47.26-.48,0-.45.15-.48.25-.48.59-.59.6,0,.44,0h.41l.59,0,.44.55-.22.48-.15.44-.07.49-.15.51-.19.44-.15.56-.18.52-.15.44-.18.52-.08.44-.25.55v.48l-.23.44-.14.56-.19.44,0,.48-.15.56-.26.4-.3,1-.07.52L182,49l-.07.55-.11.45-.26.55-.15.41v.48l-.22.51-.22.52V53l-.22.51-.15.48-.15.45-.15.48-.11.48-.15.48-.07.52-.19.51-.11.48-.14.55-.08.52-.22.41-.07.55-.07.48-.08.52v1l.19.4.47.19.82.11.55-.15.33-.26.93-.59.36-.4.45-.34.22-.36.41-.45.29-.37.3-.44.26-.41.4-.48.15-.4.33-.48.26-.48.33-.45.26-.4.67-.15.55.33.26.78-.41.37-.14.44-.3.44-.37.48-.29.52-.26.37-.19.44-.4.48-.3.41-.3.44-.33.44-.33.34-.3.48-.36.37-.37.4-.41.34-.37.4-.33.3-.48.26-.37.29-.63.15-.48.22-.41,0-1,0-.55-.15-1-.36-.37-.34-.37-.37-.15-.44-.25-.55-.12-.44-.37.4-.29.3-.34.37-.29.33-.52.29-.37.26-.44.26-.56.11-.36.22-.48.08h-1.52ZM172.47,62l.55-.22.33-.14.48-.3.48-.26.33-.4.27-.37.4-.45.29-.33.22-.48.19-.51.22-.45.22-.44.15-.52,0-.52v-.51l.15-.52V55l0-1,.07-.52-.15-.52-.25-.51-.26-.48L176,51.6l-.45-.33-.44-.4-.45-.15-.51-.15-1-.07-.48.14-.59.19-.41.22-.44.26-.41.37-.4.33-.44.37-.19.44-.3.52-.22.41-.37.44-.18.59-.15.44,0,.52-.14.59-.11.52v.51l0,1.11.22.56,0,.48.26.55.26.48.3.4.25.45.41.29.52.26L171,62l.88.12Z" fill="#fff"/><path d="M200.83,61.09l-.26.45-.36.37-.33.36-.56.26-.41.33-.36.38-.49.25-.4.3-.37.18-.55.3-.56.18-.37.19-.59.11-.4.11-.63.15-.52,0-.44.07-1.11,0-.4,0-.64-.11-.47-.07-.45-.15-.48-.3-.44-.22-.59-.33-.29-.3L188,63.2l-.44-.41-.37-.44-.26-.41-.15-.48-.18-.52-.22-.47-.08-.48-.18-.63,0-.45,0-.55-.07-1,.15-.48-.11-.52.11-.52.18-.59.08-.4.14-.56.15-.48.3-.51.07-.41.26-.44.37-.52.18-.44.37-.41.19-.37.33-.44.37-.37.37-.41.51-.33.41-.3.3-.25.52-.26.44-.19.55-.14.37-.19.63-.07.48-.11.41,0,1.17-.08.38.12.55.07.55.15.45.26.33.22.44.29.3.37.29.37.3.44.22.48.15.45,0,.55.07,1-.15.56-.1.51-.19.48-.19.41-.22.4-.29.41-.3.41-.37.33-.37.37-.48.22-.33.37-.48.22-.48.26-.55.18-.37.19-.48.11-.52.22-.48.11-.52,0-1.1.22-.44.11-.49.07-.55,0-.44.55.11.52.18.48.15.4.26.49.37.33.33.37.59.18.34.26.59.11h1.55l.44,0,.41-.12.58-.14.45-.08.4-.21.56-.12.48-.22.37-.26.44-.25.48-.26.3-.34.4-.33.37-.37h.89l.36.26.41.3.11.74Zm-10.48-4.68.52-.08.55-.07.48-.19.44-.07,1.07-.33.45-.26.44-.22.48-.34.51-.37.23-.33.37-.44.29-.52v-.44l.08-1-.19-.4-.29-.41-.56-.29-.51-.08-1,0-.44.11-.56.22-.44.18-.41.34-.33.36-.41.34-.36.4-.26.45-.22.51-.26.48-.33.45-.08.48-.11.55-.15.55.52.49Z" fill="#fff"/><path d="M168.77,38.21l-.52-.19-.59-.11-.52-.26-.41-.22-.36-.29-.37-.41-.45-.3-.26-.44-.22-.44-.4-.52-.08-.51-.25-.45,0-.48-.15-.52-.07-.59,0-.51.07-1.11-.11-.52.11-.52,0-.44.15-.52.14-.59,0-.51.15-.45.18-.51.34-.45.14-.55.3-.48.22-.44.19-.37.4-.48.33-.37.3-.48.41-.33.29-.37.56-.3.36-.33.41-.22.52-.22.48-.19.52-.22.55-.15.37-.11h1.59l.51.08.48.11,1,.44.37.33.26.3.33.33.33.41.26.51.26.41.26.48.07.48.11.48.26-.48.22-.48.19-.44.37-.56.14-.44.3-.45.11-.47.66-.52h.52l.55,0h.56l.22.49-.22.44-.19.48,0,.51-.22.56-.26.44-.08.45-.22.48-.11.59-.11.4-.26.56-.11.44-.26.52-.18.51-.11.41-.15.55-.15.45-.11.51-.18.52-.19.52-.18.48-.15.51-.11.45-.11.59-.07.44.21,1.11.34.44,1.07.11.37-.18.52-.15.29-.37.44-.26.3-.41.44-.4.3-.33.4-.41.19-.41.44-.4.22-.44.22-.49.34-.4.22-.48.44-.41.15-.55.37-.44.66-.11.48.29.12.85-.19.44-.26.41-.3.44-.25.45-.34.48-.22.4-.29.52-.19.37-.4.48-.23.37-.25.44-.34.37-.37.48-.36.33-.45.37-.37.41-.7.7-.51.26-.45.29-.29.23-.59.18-.41,0-1,0-.59-.07-.48-.18-.48-.3-.29-.26-.3-.37-.18-.44-.19-.48-.07-.59-.37.51-.48.34-.37.33-.44.41-.37.22-.52.33-.48.18-.48.19-.52.15h-.59l-.92.07Zm2.65-3,.37-.25.48-.15.52-.33.33-.26.45-.34.29-.4.22-.44.37-.37.3-.45.22-.48.07-.48.26-.44.11-.48.11-.55.15-.52-.07-.44,0-.56.08-1.07-.15-.48-.08-.51-.11-.56-.18-.4-.37-.48-.41-.41-.33-.26-.51-.26-.56-.07h-1l-.49,0-.44.18-.55.3-.48.22-.3.37-.48.4-.29.3-.34.51-.22.37-.25.45-.15.48-.3.55-.11.56-.07.44-.23.52-.07.55,0,.48.08,1.07,0,.59.08.52.22.48.22.55.34.41.29.44.37.3.48.26.59.18,1.11,0Z" fill="#fff"/><path d="M189.23,38.21l-.51-.19-.6-.11-.51-.26-.41-.22-.37-.29-.37-.41-.44-.3-.26-.44-.22-.44-.41-.52-.07-.51-.26-.45,0-.48-.14-.52-.08-.59,0-.51.07-1.11-.11-.52.11-.52,0-.44.14-.52.15-.59,0-.51.15-.45.18-.51.33-.45.15-.55.3-.48.22-.44.18-.37.41-.48.33-.37.3-.48.4-.33.3-.37.55-.3.37-.33.41-.22.51-.22.49-.19L191,21l.56-.15.36-.11h1.59l.52.08.48.11,1,.44.36.33.26.3.34.33.33.41.26.51.25.41.26.48.08.48.11.48.26-.48.22-.48.18-.44.37-.56.15-.44.29-.45.12-.47.66-.52h.52l.55,0h.56l.22.49-.22.44-.19.48,0,.51-.22.56-.26.44-.07.45-.22.48-.11.59-.11.4-.26.56-.11.44-.26.52-.18.51-.12.41-.14.55-.15.45-.11.51-.19.52-.18.52-.19.48-.15.51-.1.45-.12.59-.07.44.22,1.11.33.44,1.08.11.36-.18.52-.15.3-.37.44-.26.3-.41.44-.4.29-.33.41-.41.18-.41.45-.4.22-.44.22-.49.33-.4.22-.48.45-.41.15-.55.37-.44.66-.11.48.29.11.85-.18.44-.26.41-.3.44-.26.45-.33.48-.22.4-.3.52-.18.37-.41.48-.22.37-.26.44-.33.37-.37.48-.37.33-.44.37-.37.41-.7.7-.52.26-.44.29-.3.23-.59.18-.4,0-1,0-.59-.07-.48-.18-.48-.3-.3-.26-.29-.37-.19-.44-.18-.48-.07-.59-.38.51-.47.34-.37.33-.45.41-.37.22-.51.33-.48.18-.48.19-.52.15h-.59l-.92.07Zm2.66-3,.37-.25.48-.15.52-.33.33-.26.44-.34.3-.4.22-.44.37-.37.29-.45.23-.48.07-.48.26-.44.11-.48.11-.55.15-.52-.08-.44,0-.56.07-1.07-.15-.48-.07-.51-.11-.56-.18-.4-.37-.48-.41-.41-.33-.26-.52-.26-.55-.07h-1l-.48,0-.44.18-.56.3-.47.22-.3.37-.48.4-.3.3-.33.51-.22.37-.26.45-.15.48-.29.55-.11.56-.08.44-.22.52-.07.55,0,.48.07,1.07,0,.59.07.52.23.48.22.55.33.41.29.44.38.3.48.26.58.18,1.11,0Z" fill="#fff"/><path d="M222.18,34.92l-.41.41-.33.4-.37.44-.37.38-.33.36-.52.26-.33.33-1,.52-.44.07-.55.15-1.07,0-.52-.15-.44-.19-.45-.25-.33-.37-.29-.45-.3-.44-.18-.48-.08-.55,0-1,.07-.51,0-.49.22-.51.18-.52.11-.44.11-.48.23-.48.22-.52.14-.44.26-.44.08-.48.18-.52.26-.44.15-.48.11-.56.26-.48,0-.55.08-1-.26-.52-.37-.44-.56-.15-.81,0-.48.11-.44.07-.33.22-.48.37-.37.26-.41.33-.22.41-.37.37-.26.44-.44.37-.19.48-.37.52-.26.4-.55.93-.26.51-.26.48-.11.45-.29.59-.26.48L208,32l-.33.52-.08.48-.22.51-.33.56,0,.55-.26.52-.22.48-.18.44-.11.59-.23.52-.73.44-.37.08-.52,0-.55-.11h-.59l-.45-.4.15-.49.18-.51.23-.56.14-.48.12-.51.14-.48.08-.52.22-.48.18-.44,0-.52.19-.52.1-.51.26-.44,0-.56.26-.52.07-.44.11-.55.19-.48.22-.45.15-.59.18-.4v-.52l.3-.55v-.52l.18-.44.19-.56.22-.48,0-.52.19-.47.11-.52.18-.41.6-.55.62,0,.48-.07.48,0,.56.55-.08.44-.14.45-.22.48-.08.52-.07.51-.11.48,0,.52-.26.41,0,.55.18-.41.41-.48.29-.44.3-.41.15-.33.48-.4.26-.45.33-.37.37-.37.44-.26.37-.29.44-.37.45-.18.33-.26.51-.15.56-.15.4-.11,1.11,0,.41.07.44.19.63.18.33.33.33.26.33.44.34.45.15.4.18.56v.51l.08,1-.15.59-.11.45-.11.55-.15.52-.11.51-.19.52-.18.48-.15.44-.11.48-.37.48-.19.48-.18.48-.07.48-.26.52-.19.44-.14.52-.15.55,0,1.11.41.44h1.18l.41-.1.44-.23.48-.36.34-.34.29-.33.41-.41.4-.37.7-.07.6.37.18.7Z" fill="#fff"/></g></g></svg>